<?xml version="1.0" encoding="UTF-8"?>
<svg height="128px" viewBox="0 0 128 128" width="128px" xmlns="http://www.w3.org/2000/svg" xmlns:xlink="http://www.w3.org/1999/xlink">
    <filter id="a" height="100%" width="100%" x="0%" y="0%">
        <feColorMatrix color-interpolation-filters="sRGB" values="0 0 0 0 1 0 0 0 0 1 0 0 0 0 1 0 0 0 1 0"/>
    </filter>
    <radialGradient id="b" cx="34.275307" cy="226.434647" gradientTransform="matrix(1.706475 0 0 1.584575 -31.359833 -312.47261)" gradientUnits="userSpaceOnUse" r="56.000301">
        <stop offset="0" stop-color="#919dde"/>
        <stop offset="1" stop-color="#3b4aab"/>
    </radialGradient>
    <linearGradient id="c" gradientUnits="userSpaceOnUse">
        <stop offset="0" stop-color="#212968"/>
        <stop offset="0.375003" stop-color="#5c6bc5"/>
        <stop offset="1" stop-color="#2c3776"/>
    </linearGradient>
    <linearGradient id="d" gradientTransform="matrix(0.866025 0.5 -0.5 0.866025 98.65162 -142.250114)" x1="55.999992" x2="72" xlink:href="#c" y1="256" y2="256"/>
    <linearGradient id="e" gradientTransform="matrix(-0.866025 0.5 0.5 0.866025 29.502853 -142.25012)" x1="55.999992" x2="72" xlink:href="#c" y1="256" y2="256"/>
    <linearGradient id="f" gradientUnits="userSpaceOnUse" x1="64.07724" x2="64.07724" y1="8" y2="20">
        <stop offset="0" stop-color="#4c5ab5"/>
        <stop offset="1" stop-color="#384487"/>
    </linearGradient>
    <linearGradient id="g" gradientUnits="userSpaceOnUse" x1="46.471649" x2="91.778145" y1="16.993118" y2="38.529984">
        <stop offset="0" stop-color="#1fff6f"/>
        <stop offset="0.318864" stop-color="#03cde4"/>
        <stop offset="1" stop-color="#bf4dff"/>
    </linearGradient>
    <linearGradient id="h" gradientUnits="userSpaceOnUse">
        <stop offset="0" stop-color="#1fff6f"/>
        <stop offset="1" stop-color="#00c7f5"/>
    </linearGradient>
    <radialGradient id="i" cx="-40.825153" cy="199.928299" gradientTransform="matrix(0.388234 1.207423 1.448908 -0.323528 -222.114154 137.221494)" r="5" xlink:href="#h"/>
    <radialGradient id="j" cx="-40.825153" cy="199.928299" gradientTransform="matrix(0.388234 1.207423 1.448908 -0.323528 -208.610532 147.221459)" r="5" xlink:href="#h"/>
    <radialGradient id="k" cx="63.270763" cy="200.733337" gradientTransform="matrix(1.006629 0 0 0.56232 -0.343475 -89.655418)" gradientUnits="userSpaceOnUse" r="40">
        <stop offset="0" stop-color="#919dde"/>
        <stop offset="0.775253" stop-color="#919dde"/>
        <stop offset="0.87987" stop-color="#b0b9e9"/>
        <stop offset="1" stop-color="#6b7cda"/>
    </radialGradient>
    <radialGradient id="l" cx="-42.209389" cy="200.909225" gradientTransform="matrix(0.388234 1.207423 1.448908 -0.323528 -192.114476 139.221456)" gradientUnits="userSpaceOnUse" r="5">
        <stop offset="0" stop-color="#c38efd"/>
        <stop offset="1" stop-color="#2289eb"/>
    </radialGradient>
    <radialGradient id="m" cx="-138.926224" cy="256" gradientTransform="matrix(1.046836 0 0 1 284.510254 -2)" gradientUnits="userSpaceOnUse" r="23">
        <stop offset="0" stop-color="#1f317e"/>
        <stop offset="0.664528" stop-color="#222749"/>
        <stop offset="0.83066" stop-color="#4358b3"/>
        <stop offset="1" stop-color="#242c59"/>
    </radialGradient>
    <linearGradient id="n" gradientTransform="matrix(1 0 0 -1.142855 0.000015 334.856628)" gradientUnits="userSpaceOnUse" x1="63.999989" x2="63.999989" y1="229.999985" y2="244.000015">
        <stop offset="0" stop-color="#212968"/>
        <stop offset="0.666671" stop-color="#5c6bc5"/>
        <stop offset="1" stop-color="#2c3776"/>
    </linearGradient>
    <linearGradient id="o" gradientUnits="userSpaceOnUse">
        <stop offset="0" stop-opacity="0.419608"/>
        <stop offset="1" stop-opacity="0"/>
    </linearGradient>
    <linearGradient id="p" x1="56" x2="54" xlink:href="#o" y1="64.476562" y2="64.476562"/>
    <linearGradient id="q" gradientTransform="matrix(-1 0 0 1 -75.07724 -172)" x1="-147.07724" x2="-149.07724" xlink:href="#o" y1="236.476562" y2="236.476562"/>
    <clipPath id="r">
        <path d="m 0 16 h 128 v 112 h -128 z m 0 0"/>
    </clipPath>
    <clipPath id="s">
        <rect height="128" width="128"/>
    </clipPath>
    <clipPath id="t">
        <rect height="128" width="128"/>
    </clipPath>
    <mask id="u">
        <g filter="url(#a)">
            <g clip-path="url(#t)" filter="url(#a)">
                <g clip-path="url(#s)">
                    <path d="m 121.15625 67 c 0 29.269531 -25.554688 53 -57.078125 53 s -57.078125 -23.730469 -57.078125 -53 s 25.554688 -53 57.078125 -53 s 57.078125 23.730469 57.078125 53 z m 0 0" fill="url(#b)"/>
                    <path d="m 64.078125 2 c -22.09375 0 -40 10.746094 -40 24 s 17.90625 24 40 24 c 22.089844 0 40 -10.746094 40 -24 s -17.910156 -24 -40 -24 z m 0 8 c 17.121094 0 31 7.164062 31 16 s -13.878906 16 -31 16 s -31 -7.164062 -31 -16 s 13.878906 -16 31 -16 z m 0 0" fill-opacity="0.266667"/>
                    <path d="m 17.152344 110.90625 l 3.996094 -6.917969 c 2.210937 -3.828125 7.101562 -5.136719 10.929687 -2.929687 c 3.824219 2.210937 5.136719 7.101562 2.925781 10.929687 l -3.992187 6.917969 c -2.214844 3.832031 -7.113281 5.144531 -10.941407 2.933594 c -3.824218 -2.214844 -5.128906 -7.109375 -2.917968 -10.933594 z m 0 0" fill="url(#d)"/>
                    <path d="m 111 110.90625 l -3.996094 -6.917969 c -2.207031 -3.828125 -7.101562 -5.136719 -10.925781 -2.929687 c -3.828125 2.210937 -5.136719 7.101562 -2.929687 10.929687 l 3.996093 6.917969 c 2.210938 3.832031 7.109375 5.144531 10.941407 2.933594 c 3.824218 -2.214844 5.128906 -7.109375 2.914062 -10.933594 z m 0 0" fill="url(#e)"/>
                    <path d="m 95.078125 24 c 0 8.835938 -13.878906 16 -31 16 s -31 -7.164062 -31 -16 s 13.878906 -16 31 -16 s 31 7.164062 31 16 z m 0 0" fill="url(#f)"/>
                    <path d="m 64.078125 20 c -17.121094 0 -31 7.164062 -31 16 c 0 0.6875 0.089844 1.375 0.261719 2.054688 l 22.738281 4.945312 l 23 3 l 15.917969 -9.363281 c 0.035156 -0.210938 0.0625 -0.425781 0.082031 -0.636719 c 0 -8.835938 -13.878906 -16 -31 -16 z m 0 0" fill="#ffffff"/>
                    <path d="m 64.078125 20 c -17.121094 0 -31 7.164062 -31 16 c 0 0.6875 0.089844 1.375 0.261719 2.054688 l 22.738281 4.945312 l 23 3 l 15.917969 -9.363281 c 0.035156 -0.210938 0.0625 -0.425781 0.082031 -0.636719 c 0 -8.835938 -13.878906 -16 -31 -16 z m 0 0" fill="url(#g)"/>
                    <path d="m 64.078125 20 c -17.121094 0 -31 7.164062 -31 16 c 0.023437 0.335938 0.070313 0.667969 0.136719 1 c 1.023437 -8.417969 14.523437 -14.980469 30.863281 -15 c 16.175781 0.003906 29.628906 6.425781 30.894531 14.75 c 0.046875 -0.25 0.082032 -0.5 0.105469 -0.75 c 0 -8.835938 -13.878906 -16 -31 -16 z m 0 0" fill-opacity="0.360784"/>
                    <path d="m 53.019531 31.785156 c 4 -0.890625 6.375 -4.320312 5.300781 -7.652344 c -1.070312 -3.335937 -5.183593 -5.3125 -9.183593 -4.421874 c -4 0.894531 -6.375 4.324218 -5.304688 7.65625 c 1.074219 3.335937 5.183594 5.3125 9.1875 4.417968 z m 0 0" fill="url(#i)"/>
                    <path d="m 66.523438 41.785156 c 4 -0.890625 6.375 -4.320312 5.300781 -7.652344 c -1.070313 -3.335937 -5.183594 -5.3125 -9.183594 -4.421874 c -4 0.894531 -6.375 4.324218 -5.304687 7.65625 c 1.074218 3.335937 5.183593 5.3125 9.1875 4.417968 z m 0 0" fill="url(#j)"/>
                    <path d="m 57.183594 34.691406 c -0.179688 0.886719 -0.128906 1.789063 0.152344 2.65625 c 1.070312 3.332032 5.183593 5.3125 9.183593 4.417969 c 3.71875 -0.828125 6.078125 -3.871094 5.460938 -7.035156 c -0.472657 2.429687 -2.609375 4.398437 -5.460938 5.035156 c -4 0.894531 -8.113281 -1.085937 -9.183593 -4.417969 c -0.066407 -0.214844 -0.117188 -0.433594 -0.152344 -0.65625 z m 0 0" fill="#ffffff" fill-opacity="0.580392"/>
                    <path d="m 64.078125 0 c -22.09375 0 -40 10.746094 -40 24 s 17.90625 24 40 24 c 22.089844 0 40 -10.746094 40 -24 s -17.910156 -24 -40 -24 z m 0 8 c 17.121094 0 31 7.164062 31 16 s -13.878906 16 -31 16 s -31 -7.164062 -31 -16 s 13.878906 -16 31 -16 z m 0 0" fill="url(#k)"/>
                    <path d="m 28.496094 100 c -3.003906 -0.15625 -5.84375 1.382812 -7.347656 3.988281 l -3.996094 6.917969 c -0.882813 1.542969 -1.230469 3.332031 -0.984375 5.089844 c 0.125 -1.054688 0.460937 -2.074219 0.984375 -2.996094 l 3.996094 -6.917969 c 2.210937 -3.828125 7.101562 -5.140625 10.929687 -2.933593 c 2.15625 1.25 3.609375 3.425781 3.929687 5.894531 c 0.425782 -3.210938 -1.125 -6.363281 -3.929687 -7.980469 c -1.09375 -0.632812 -2.320313 -0.996094 -3.582031 -1.0625 z m 0 0" fill-opacity="0.12549"/>
                    <path d="m 99.660156 100 c 3 -0.15625 5.839844 1.382812 7.34375 3.988281 l 3.996094 6.917969 c 0.882812 1.542969 1.230469 3.332031 0.988281 5.089844 c -0.128906 -1.054688 -0.464843 -2.074219 -0.988281 -2.996094 l -3.996094 -6.917969 c -2.207031 -3.828125 -7.101562 -5.140625 -10.925781 -2.933593 c -2.15625 1.25 -3.609375 3.425781 -3.929687 5.894531 c -0.429688 -3.210938 1.121093 -6.363281 3.929687 -7.980469 c 1.09375 -0.632812 2.320313 -0.996094 3.582031 -1.0625 z m 0 0" fill-opacity="0.12549"/>
                    <path d="m 83.019531 33.785156 c 4 -0.890625 6.375 -4.320312 5.300781 -7.652344 c -1.070312 -3.335937 -5.183593 -5.3125 -9.183593 -4.421874 c -4 0.894531 -6.375 4.324218 -5.304688 7.65625 c 1.074219 3.335937 5.183594 5.3125 9.1875 4.417968 z m 0 0" fill="url(#l)"/>
                    <path d="m 64.078125 6 c -17.121094 0 -31 7.164062 -31 16 c 0.023437 0.335938 0.070313 0.667969 0.136719 1 c 1.023437 -8.417969 14.523437 -14.980469 30.863281 -15 c 16.175781 0.003906 29.628906 6.425781 30.894531 14.75 c 0.046875 -0.25 0.082032 -0.5 0.105469 -0.75 c 0 -8.835938 -13.878906 -16 -31 -16 z m 0 0" fill-opacity="0.180392"/>
                    <path d="m 43.679688 24.710938 c -0.175782 0.886718 -0.125 1.789062 0.152343 2.65625 c 1.074219 3.335937 5.183594 5.3125 9.1875 4.421874 c 3.714844 -0.832031 6.074219 -3.875 5.460938 -7.039062 c -0.472657 2.429688 -2.609375 4.398438 -5.460938 5.039062 c -4.003906 0.890626 -8.113281 -1.085937 -9.1875 -4.421874 c -0.0625 -0.214844 -0.113281 -0.433594 -0.152343 -0.65625 z m 0 0" fill="#ffffff" fill-opacity="0.580392"/>
                    <path d="m 73.679688 26.710938 c -0.175782 0.886718 -0.125 1.789062 0.152343 2.65625 c 1.074219 3.335937 5.183594 5.3125 9.1875 4.417968 c 3.714844 -0.828125 6.074219 -3.871094 5.460938 -7.035156 c -0.472657 2.429688 -2.609375 4.398438 -5.460938 5.035156 c -4.003906 0.894532 -8.113281 -1.082031 -9.1875 -4.417968 c -0.0625 -0.214844 -0.113281 -0.433594 -0.152343 -0.65625 z m 0 0" fill="#ffffff" fill-opacity="0.580392"/>
                    <path d="m 64.078125 60 c 13.207031 0 24 10.792969 24 24 s -10.792969 24 -24 24 s -24 -10.792969 -24 -24 s 10.792969 -24 24 -24 z m 0 8 c -8.886719 0 -16 7.117188 -16 16 s 7.113281 16 16 16 c 8.882813 0 16 -7.117188 16 -16 s -7.117187 -16 -16 -16 z m 0 0" fill-opacity="0.176471"/>
                    <g clip-path="url(#r)">
                        <path d="m 158.999115 254 c 0 11.046875 -8.953125 20 -20 20 c -11.042969 0 -20 -8.953125 -20 -20 s 8.957031 -20 20 -20 c 11.046875 0 20 8.953125 20 20 z m 0 0" fill="none" stroke="url(#m)" stroke-linecap="round" stroke-width="8" transform="matrix(-1 0 0 1 203.07724 -172)"/>
                    </g>
                    <path d="m 60 72 h 8 c 2.210938 0 4 -1.789062 4 -4 v -8 c 0 -2.210938 -1.789062 -4 -4 -4 h -8 c -2.210938 0 -4 1.789062 -4 4 v 8 c 0 2.210938 1.789062 4 4 4 z m 0 0" fill="url(#n)"/>
                    <path d="m 56 59.40625 c -0.683594 0.246094 -1.347656 0.527344 -2 0.832031 v 9.304688 c 0.628906 -0.507813 1.296875 -0.964844 2 -1.375 z m 0 0" fill="url(#p)"/>
                    <path d="m 72 59.40625 c 0.683594 0.246094 1.347656 0.527344 2 0.832031 v 9.304688 c -0.628906 -0.507813 -1.296875 -0.964844 -2 -1.375 z m 0 0" fill="url(#q)"/>
                </g>
            </g>
        </g>
    </mask>
    <mask id="v">
        <g filter="url(#a)">
            <rect fill-opacity="0.8" height="184.32" width="184.32" x="-28.16" y="-28.16"/>
        </g>
    </mask>
    <linearGradient id="w" gradientTransform="matrix(0 0.37 -0.98462 0 295.38501 -30.360001)" gradientUnits="userSpaceOnUse" x1="300" x2="428" y1="235" y2="235">
        <stop offset="0" stop-color="#f9f06b"/>
        <stop offset="1" stop-color="#f5c211"/>
    </linearGradient>
    <clipPath id="x">
        <rect height="128" width="128"/>
    </clipPath>
    <clipPath id="y">
        <rect height="128" width="128"/>
    </clipPath>
    <path d="m 121.15625 67 c 0 29.269531 -25.554688 53 -57.078125 53 s -57.078125 -23.730469 -57.078125 -53 s 25.554688 -53 57.078125 -53 s 57.078125 23.730469 57.078125 53 z m 0 0" fill="url(#b)"/>
    <path d="m 64.078125 2 c -22.09375 0 -40 10.746094 -40 24 s 17.90625 24 40 24 c 22.089844 0 40 -10.746094 40 -24 s -17.910156 -24 -40 -24 z m 0 8 c 17.121094 0 31 7.164062 31 16 s -13.878906 16 -31 16 s -31 -7.164062 -31 -16 s 13.878906 -16 31 -16 z m 0 0" fill-opacity="0.266667"/>
    <path d="m 17.152344 110.90625 l 3.996094 -6.917969 c 2.210937 -3.828125 7.101562 -5.136719 10.929687 -2.929687 c 3.824219 2.210937 5.136719 7.101562 2.925781 10.929687 l -3.992187 6.917969 c -2.214844 3.832031 -7.113281 5.144531 -10.941407 2.933594 c -3.824218 -2.214844 -5.128906 -7.109375 -2.917968 -10.933594 z m 0 0" fill="url(#d)"/>
    <path d="m 111 110.90625 l -3.996094 -6.917969 c -2.207031 -3.828125 -7.101562 -5.136719 -10.925781 -2.929687 c -3.828125 2.210937 -5.136719 7.101562 -2.929687 10.929687 l 3.996093 6.917969 c 2.210938 3.832031 7.109375 5.144531 10.941407 2.933594 c 3.824218 -2.214844 5.128906 -7.109375 2.914062 -10.933594 z m 0 0" fill="url(#e)"/>
    <path d="m 95.078125 24 c 0 8.835938 -13.878906 16 -31 16 s -31 -7.164062 -31 -16 s 13.878906 -16 31 -16 s 31 7.164062 31 16 z m 0 0" fill="url(#f)"/>
    <path d="m 64.078125 20 c -17.121094 0 -31 7.164062 -31 16 c 0 0.6875 0.089844 1.375 0.261719 2.054688 l 22.738281 4.945312 l 23 3 l 15.917969 -9.363281 c 0.035156 -0.210938 0.0625 -0.425781 0.082031 -0.636719 c 0 -8.835938 -13.878906 -16 -31 -16 z m 0 0" fill="#ffffff"/>
    <path d="m 64.078125 20 c -17.121094 0 -31 7.164062 -31 16 c 0 0.6875 0.089844 1.375 0.261719 2.054688 l 22.738281 4.945312 l 23 3 l 15.917969 -9.363281 c 0.035156 -0.210938 0.0625 -0.425781 0.082031 -0.636719 c 0 -8.835938 -13.878906 -16 -31 -16 z m 0 0" fill="url(#g)"/>
    <path d="m 64.078125 20 c -17.121094 0 -31 7.164062 -31 16 c 0.023437 0.335938 0.070313 0.667969 0.136719 1 c 1.023437 -8.417969 14.523437 -14.980469 30.863281 -15 c 16.175781 0.003906 29.628906 6.425781 30.894531 14.75 c 0.046875 -0.25 0.082032 -0.5 0.105469 -0.75 c 0 -8.835938 -13.878906 -16 -31 -16 z m 0 0" fill-opacity="0.360784"/>
    <path d="m 53.019531 31.785156 c 4 -0.890625 6.375 -4.320312 5.300781 -7.652344 c -1.070312 -3.335937 -5.183593 -5.3125 -9.183593 -4.421874 c -4 0.894531 -6.375 4.324218 -5.304688 7.65625 c 1.074219 3.335937 5.183594 5.3125 9.1875 4.417968 z m 0 0" fill="url(#i)"/>
    <path d="m 66.523438 41.785156 c 4 -0.890625 6.375 -4.320312 5.300781 -7.652344 c -1.070313 -3.335937 -5.183594 -5.3125 -9.183594 -4.421874 c -4 0.894531 -6.375 4.324218 -5.304687 7.65625 c 1.074218 3.335937 5.183593 5.3125 9.1875 4.417968 z m 0 0" fill="url(#j)"/>
    <path d="m 57.183594 34.691406 c -0.179688 0.886719 -0.128906 1.789063 0.152344 2.65625 c 1.070312 3.332032 5.183593 5.3125 9.183593 4.417969 c 3.71875 -0.828125 6.078125 -3.871094 5.460938 -7.035156 c -0.472657 2.429687 -2.609375 4.398437 -5.460938 5.035156 c -4 0.894531 -8.113281 -1.085937 -9.183593 -4.417969 c -0.066407 -0.214844 -0.117188 -0.433594 -0.152344 -0.65625 z m 0 0" fill="#ffffff" fill-opacity="0.580392"/>
    <path d="m 64.078125 0 c -22.09375 0 -40 10.746094 -40 24 s 17.90625 24 40 24 c 22.089844 0 40 -10.746094 40 -24 s -17.910156 -24 -40 -24 z m 0 8 c 17.121094 0 31 7.164062 31 16 s -13.878906 16 -31 16 s -31 -7.164062 -31 -16 s 13.878906 -16 31 -16 z m 0 0" fill="url(#k)"/>
    <path d="m 28.496094 100 c -3.003906 -0.15625 -5.84375 1.382812 -7.347656 3.988281 l -3.996094 6.917969 c -0.882813 1.542969 -1.230469 3.332031 -0.984375 5.089844 c 0.125 -1.054688 0.460937 -2.074219 0.984375 -2.996094 l 3.996094 -6.917969 c 2.210937 -3.828125 7.101562 -5.140625 10.929687 -2.933593 c 2.15625 1.25 3.609375 3.425781 3.929687 5.894531 c 0.425782 -3.210938 -1.125 -6.363281 -3.929687 -7.980469 c -1.09375 -0.632812 -2.320313 -0.996094 -3.582031 -1.0625 z m 0 0" fill-opacity="0.12549"/>
    <path d="m 99.660156 100 c 3 -0.15625 5.839844 1.382812 7.34375 3.988281 l 3.996094 6.917969 c 0.882812 1.542969 1.230469 3.332031 0.988281 5.089844 c -0.128906 -1.054688 -0.464843 -2.074219 -0.988281 -2.996094 l -3.996094 -6.917969 c -2.207031 -3.828125 -7.101562 -5.140625 -10.925781 -2.933593 c -2.15625 1.25 -3.609375 3.425781 -3.929687 5.894531 c -0.429688 -3.210938 1.121093 -6.363281 3.929687 -7.980469 c 1.09375 -0.632812 2.320313 -0.996094 3.582031 -1.0625 z m 0 0" fill-opacity="0.12549"/>
    <path d="m 83.019531 33.785156 c 4 -0.890625 6.375 -4.320312 5.300781 -7.652344 c -1.070312 -3.335937 -5.183593 -5.3125 -9.183593 -4.421874 c -4 0.894531 -6.375 4.324218 -5.304688 7.65625 c 1.074219 3.335937 5.183594 5.3125 9.1875 4.417968 z m 0 0" fill="url(#l)"/>
    <path d="m 64.078125 6 c -17.121094 0 -31 7.164062 -31 16 c 0.023437 0.335938 0.070313 0.667969 0.136719 1 c 1.023437 -8.417969 14.523437 -14.980469 30.863281 -15 c 16.175781 0.003906 29.628906 6.425781 30.894531 14.75 c 0.046875 -0.25 0.082032 -0.5 0.105469 -0.75 c 0 -8.835938 -13.878906 -16 -31 -16 z m 0 0" fill-opacity="0.180392"/>
    <path d="m 43.679688 24.710938 c -0.175782 0.886718 -0.125 1.789062 0.152343 2.65625 c 1.074219 3.335937 5.183594 5.3125 9.1875 4.421874 c 3.714844 -0.832031 6.074219 -3.875 5.460938 -7.039062 c -0.472657 2.429688 -2.609375 4.398438 -5.460938 5.039062 c -4.003906 0.890626 -8.113281 -1.085937 -9.1875 -4.421874 c -0.0625 -0.214844 -0.113281 -0.433594 -0.152343 -0.65625 z m 0 0" fill="#ffffff" fill-opacity="0.580392"/>
    <path d="m 73.679688 26.710938 c -0.175782 0.886718 -0.125 1.789062 0.152343 2.65625 c 1.074219 3.335937 5.183594 5.3125 9.1875 4.417968 c 3.714844 -0.828125 6.074219 -3.871094 5.460938 -7.035156 c -0.472657 2.429688 -2.609375 4.398438 -5.460938 5.035156 c -4.003906 0.894532 -8.113281 -1.082031 -9.1875 -4.417968 c -0.0625 -0.214844 -0.113281 -0.433594 -0.152343 -0.65625 z m 0 0" fill="#ffffff" fill-opacity="0.580392"/>
    <path d="m 64.078125 60 c 13.207031 0 24 10.792969 24 24 s -10.792969 24 -24 24 s -24 -10.792969 -24 -24 s 10.792969 -24 24 -24 z m 0 8 c -8.886719 0 -16 7.117188 -16 16 s 7.113281 16 16 16 c 8.882813 0 16 -7.117188 16 -16 s -7.117187 -16 -16 -16 z m 0 0" fill-opacity="0.176471"/>
    <path d="m 158.999115 254 c 0 11.046875 -8.953125 20 -20 20 c -11.042969 0 -20 -8.953125 -20 -20 s 8.957031 -20 20 -20 c 11.046875 0 20 8.953125 20 20 z m 0 0" fill="none" stroke="url(#m)" stroke-linecap="round" stroke-width="8" transform="matrix(-1 0 0 1 203.07724 -172)"/>
    <path d="m 60 72 h 8 c 2.210938 0 4 -1.789062 4 -4 v -8 c 0 -2.210938 -1.789062 -4 -4 -4 h -8 c -2.210938 0 -4 1.789062 -4 4 v 8 c 0 2.210938 1.789062 4 4 4 z m 0 0" fill="url(#n)"/>
    <path d="m 56 59.40625 c -0.683594 0.246094 -1.347656 0.527344 -2 0.832031 v 9.304688 c 0.628906 -0.507813 1.296875 -0.964844 2 -1.375 z m 0 0" fill="url(#p)"/>
    <path d="m 72 59.40625 c 0.683594 0.246094 1.347656 0.527344 2 0.832031 v 9.304688 c -0.628906 -0.507813 -1.296875 -0.964844 -2 -1.375 z m 0 0" fill="url(#q)"/>
    <g mask="url(#u)">
        <g clip-path="url(#y)">
            <g mask="url(#v)">
                <g clip-path="url(#x)">
                    <path d="m 128 80.640625 v 47.359375 h -128 v -47.359375 z m 0 0" fill="url(#w)"/>
                    <path d="m 13.308594 80.640625 l 47.355468 47.359375 h 21.214844 l -47.359375 -47.359375 z m 42.421875 0 l 47.363281 47.359375 h 21.214844 l -47.363282 -47.359375 z m 42.429687 0 l 29.839844 29.839844 v -21.210938 l -8.628906 -8.628906 z m -98.160156 7.90625 v 21.214844 l 18.238281 18.238281 h 21.214844 z m 0 0"/>
                </g>
            </g>
        </g>
    </g>
</svg>
