<?xml version="1.0" encoding="UTF-8"?>
<svg height="16px" viewBox="0 0 16 16" width="16px" xmlns="http://www.w3.org/2000/svg">
    <path d="m 2.855469 2 c -0.550781 0 -1 0.449219 -1 1 s 0.449219 1 1 1 h 10.289062 c 0.550781 0 1 -0.449219 1 -1 s -0.449219 -1 -1 -1 z m 0 0"/>
    <path d="m 4.351562 2.0625 c -0.515624 -0.191406 -1.09375 0.070312 -1.289062 0.585938 l -1.71875 4.582031 c -0.890625 2.375 0.457031 5.039062 2.894531 5.734375 c 2.46875 0.703125 5.085938 0.699218 7.550781 -0.007813 h 0.003907 c 2.429687 -0.703125 3.757812 -3.367187 2.859375 -5.734375 l -1.714844 -4.574218 c -0.195312 -0.515626 -0.773438 -0.777344 -1.289062 -0.585938 c -0.515626 0.195312 -0.777344 0.773438 -0.582032 1.289062 l 1.714844 4.578126 l 0.003906 0.003906 c 0.492188 1.300781 -0.214844 2.714844 -1.550781 3.101562 c -2.105469 0.605469 -4.339844 0.605469 -6.445313 0.007813 c -1.347656 -0.382813 -2.0625 -1.800781 -1.570312 -3.109375 l 1.71875 -4.582032 c 0.191406 -0.515624 -0.070312 -1.09375 -0.585938 -1.285156 z m 0 0"/>
    <path d="m 4.25 10.816406 c -0.453125 -0.316406 -1.074219 -0.210937 -1.394531 0.238282 l -1.671875 2.371093 c -0.316406 0.449219 -0.210938 1.070313 0.242187 1.390625 c 0.449219 0.316406 1.070313 0.210938 1.390625 -0.242187 l 1.671875 -2.363281 c 0.152344 -0.214844 0.214844 -0.484376 0.167969 -0.746094 c -0.042969 -0.261719 -0.191406 -0.496094 -0.40625 -0.648438 z m 0 0"/>
    <path d="m 11.75 10.816406 c -0.214844 0.152344 -0.363281 0.386719 -0.40625 0.648438 c -0.046875 0.261718 0.015625 0.53125 0.167969 0.746094 l 1.671875 2.363281 c 0.320312 0.453125 0.941406 0.558593 1.390625 0.242187 c 0.453125 -0.320312 0.558593 -0.941406 0.242187 -1.390625 l -1.671875 -2.371093 c -0.320312 -0.449219 -0.941406 -0.554688 -1.394531 -0.238282 z m 0 0"/>
    <path d="m 7 7 s 1.636719 -0.011719 2 0"/>
    <path d="m 6.992188 6 c -0.550782 0.003906 -0.996094 0.453125 -0.992188 1.007812 c 0.003906 0.550782 0.453125 0.996094 1.007812 0.992188 c 0 0 1.707032 -0.007812 1.960938 0 c 0.550781 0.015625 1.015625 -0.417969 1.03125 -0.96875 s -0.417969 -1.015625 -0.96875 -1.03125 c -0.476562 -0.015625 -2.039062 0 -2.039062 0 z m 0 0"/>
</svg>
