<?xml version="1.0" standalone="no"?>
<!DOCTYPE svg PUBLIC "-//W3C//DTD SVG 20010904//EN"
 "http://www.w3.org/TR/2001/REC-SVG-20010904/DTD/svg10.dtd">
<svg version="1.0" xmlns="http://www.w3.org/2000/svg"
 width="512.000000pt" height="512.000000pt" viewBox="0 0 512.000000 512.000000"
 preserveAspectRatio="xMidYMid meet">
<metadata>
Created by potrace 1.16, written by Peter Selinger 2001-2019
</metadata>
<g transform="translate(0.000000,512.000000) scale(0.100000,-0.100000)"
fill="#000000" stroke="none">
<path d="M2987 4363 c-11 -11 -8 -48 5 -61 7 -7 21 -12 32 -12 10 0 43 -12 72
-27 44 -22 55 -24 68 -14 36 30 11 64 -77 104 -38 17 -88 22 -100 10z"/>
<path d="M2603 4308 c-132 -92 -167 -143 -121 -172 14 -8 27 -1 71 41 29 28
79 66 111 83 63 36 75 52 56 75 -21 25 -53 17 -117 -27z"/>
<path d="M2797 4270 c-88 -15 -193 -74 -267 -149 -150 -152 -193 -349 -125
-566 47 -151 28 -244 -61 -300 -24 -15 -41 -32 -38 -37 13 -20 -33 -49 -126
-77 -145 -46 -223 -102 -307 -224 -42 -60 -67 -76 -139 -83 -50 -5 -67 -3
-102 15 -142 73 -163 299 -37 409 35 32 54 39 110 44 l29 3 -29 20 c-80 52
-199 -16 -243 -140 -6 -16 -11 -23 -11 -15 -1 23 36 99 65 134 50 59 93 80
161 81 78 0 67 17 -15 23 -197 14 -341 -242 -248 -443 15 -33 37 -70 48 -82
25 -27 15 -29 -35 -8 -51 21 -83 19 -101 -7 -36 -51 -2 -125 52 -115 25 5 25
4 7 -9 -24 -18 -30 -18 -70 1 -88 42 -63 162 38 183 l42 9 -38 11 c-137 39
-223 -140 -112 -237 41 -36 91 -47 139 -31 39 13 56 35 56 72 0 30 -17 48 -47
48 -25 0 -29 10 -12 27 14 14 54 1 84 -26 46 -42 87 -55 176 -54 158 2 211 28
299 143 85 111 190 174 334 200 86 15 86 14 10 -24 -86 -43 -165 -113 -232
-205 l-52 -71 480 0 c271 0 481 4 484 9 3 5 -29 10 -72 12 -76 4 -78 5 -122
47 -81 78 -169 118 -233 105 -16 -3 -55 -30 -87 -59 l-58 -54 -76 0 c-42 0
-76 4 -76 8 0 12 49 57 90 81 l35 22 -30 -7 c-40 -9 -104 -46 -134 -78 -19
-20 -34 -26 -68 -26 -24 0 -43 5 -43 11 0 6 24 34 53 63 64 65 172 120 266
136 61 11 79 11 138 -3 89 -22 175 -66 245 -126 39 -34 72 -52 106 -61 33 -8
67 -26 102 -56 28 -24 70 -49 93 -55 29 -9 153 -13 392 -13 339 -1 351 0 390
20 67 36 105 95 105 163 0 148 -135 214 -300 147 -90 -37 -130 -70 -130 -107
l0 -30 43 26 c61 35 153 65 201 65 98 -1 138 -106 66 -175 -35 -34 -86 -44
-220 -44 l-95 0 107 33 c107 33 158 58 158 77 0 20 -21 49 -35 49 -8 0 -36
-13 -62 -29 -63 -39 -136 -67 -208 -80 -32 -6 -60 -10 -61 -8 -1 1 12 26 31
55 44 70 70 176 61 250 -3 32 -7 68 -9 81 -2 19 8 30 48 53 75 44 144 116 176
183 52 107 35 237 -37 294 -28 22 -102 46 -112 37 -3 -4 8 -21 24 -38 27 -30
26 -30 -12 4 -81 71 -203 73 -314 5 -67 -40 -79 -64 -18 -37 117 51 209 46
279 -17 161 -146 -49 -404 -275 -339 -65 19 -91 51 -102 123 -8 54 17 179 64
313 57 165 46 263 -39 334 -50 42 -165 96 -238 112 -72 15 -102 16 -174 4z
m203 -86 c113 -31 200 -117 200 -199 0 -21 -21 -99 -47 -174 -38 -111 -47
-152 -51 -227 -2 -51 -2 -108 2 -128 13 -69 94 -136 181 -151 201 -35 213
-348 18 -462 -38 -22 -57 -26 -128 -27 -73 -1 -87 2 -112 22 -55 44 -117 82
-136 82 -10 0 -42 22 -71 49 -113 108 -259 169 -429 178 l-98 6 52 29 c70 38
84 52 114 111 34 69 34 150 -1 254 -31 96 -42 237 -24 314 38 163 173 300 330
335 60 14 116 10 200 -12z m676 -486 c26 -48 23 -143 -5 -200 -26 -56 -106
-132 -164 -158 -68 -31 -78 -22 -11 10 67 33 147 110 170 165 18 44 18 136 0
180 -19 44 -12 45 10 3z m-2229 -590 c-3 -7 -5 -2 -5 12 0 14 2 19 5 13 2 -7
2 -19 0 -25z m1206 -199 c41 -21 121 -79 115 -84 -2 -1 -77 3 -168 9 l-164 11
40 43 c37 38 46 42 88 42 28 0 64 -9 89 -21z"/>
<path d="M2752 3925 c-62 -52 -93 -173 -57 -221 14 -18 14 -18 8 3 -16 64 35
153 87 153 16 0 33 -7 38 -16 7 -13 13 -14 30 -5 35 18 70 12 104 -18 27 -24
32 -36 36 -89 7 -96 -1 -102 -53 -44 -46 51 -115 87 -151 80 -15 -2 -8 -14 35
-62 68 -74 95 -136 116 -256 8 -52 26 -117 40 -145 28 -58 87 -119 130 -132
26 -9 33 -6 57 19 50 53 121 27 153 -57 l15 -40 -4 50 c-3 40 -10 55 -36 78
-31 28 -35 29 -109 22 -62 -5 -82 -3 -110 12 -86 45 -100 124 -51 278 58 179
50 269 -30 338 -37 31 -153 77 -197 77 -12 0 -35 -11 -51 -25z"/>
<path d="M2583 3748 c-30 -33 -46 -94 -40 -147 6 -47 74 -237 108 -301 24 -45
56 -86 63 -80 3 3 -6 57 -19 120 -18 82 -38 141 -70 207 -57 116 -61 138 -37
186 23 43 23 45 -5 15z"/>
<path d="M2757 3665 c12 -29 18 -86 23 -210 6 -164 7 -173 36 -224 27 -51 92
-111 120 -111 7 0 1 20 -18 56 -26 48 -32 73 -43 192 -16 162 -40 237 -96 296
l-39 41 17 -40z"/>
<path d="M3153 3125 c-20 -20 -34 -38 -31 -40 2 -3 22 4 43 15 50 26 57 25 93
-5 37 -31 42 -31 42 -1 0 31 -43 66 -82 66 -21 0 -41 -11 -65 -35z"/>
<path d="M2060 4172 c0 -24 8 -32 26 -25 22 8 17 43 -6 43 -13 0 -20 -7 -20
-18z"/>
<path d="M1965 4008 c-77 -27 -134 -103 -135 -178 0 -44 18 -110 30 -110 15 0
30 36 30 70 0 39 24 98 53 128 34 37 71 52 125 52 63 0 133 -44 180 -114 35
-53 44 -38 12 24 -56 109 -186 166 -295 128z"/>
<path d="M3357 3944 c-13 -13 -7 -52 8 -58 27 -10 46 5 43 33 -3 26 -35 41
-51 25z"/>
<path d="M1950 3863 c-29 -30 -39 -48 -44 -88 -4 -27 -9 -67 -12 -87 -3 -22
-29 -72 -60 -119 -45 -68 -54 -89 -54 -126 0 -54 16 -87 70 -138 31 -29 41
-35 37 -20 -3 11 -13 50 -22 87 l-18 66 28 49 c68 117 75 135 81 233 4 57 14
112 25 138 10 23 15 42 12 42 -3 0 -22 -17 -43 -37z"/>
<path d="M2204 3665 c-4 -15 -1 -32 6 -40 18 -21 57 -19 70 5 16 30 -4 60 -40
60 -23 0 -31 -5 -36 -25z"/>
<path d="M1522 3664 c-24 -17 -30 -62 -10 -82 7 -7 24 -12 38 -12 34 0 50 17
50 55 0 24 -6 35 -25 43 -32 15 -26 15 -53 -4z"/>
<path d="M2082 3584 c-12 -8 -30 -30 -39 -47 -17 -34 -34 -157 -22 -157 14 0
21 -106 10 -146 l-10 -39 29 32 c16 18 36 57 45 86 22 75 36 91 78 91 42 0 65
-17 84 -63 l14 -34 21 20 c51 52 -1 175 -105 246 -46 31 -73 34 -105 11z m104
-72 c23 -18 49 -61 41 -68 -2 -2 -18 1 -36 7 -18 6 -45 9 -61 5 -26 -5 -30 -2
-30 16 0 26 27 58 49 58 9 0 26 -8 37 -18z"/>
<path d="M1741 3204 c-26 -19 -51 -71 -51 -109 0 -26 0 -26 31 9 38 44 81 54
134 32 21 -9 40 -14 42 -12 8 8 -27 65 -49 80 -29 21 -77 20 -107 0z"/>
<path d="M3832 2892 c-11 -25 -11 -25 4 -10 9 9 15 21 13 27 -2 6 -10 -2 -17
-17z"/>
<path d="M1508 2661 c-33 -3 -65 -13 -74 -23 -25 -24 -21 -68 8 -93 l25 -22 6
-244 c8 -331 32 -464 113 -620 64 -121 206 -255 344 -324 30 -15 56 -28 57
-29 5 -4 -46 -128 -62 -153 -30 -45 -86 -71 -212 -97 -130 -27 -177 -45 -187
-72 -15 -40 37 -66 195 -98 219 -44 397 -59 714 -59 299 0 452 10 660 43 196
31 274 64 260 109 -9 30 -67 55 -175 76 -153 31 -195 60 -246 173 -19 41 -34
76 -34 78 0 2 19 13 43 25 186 95 310 231 383 419 57 149 73 265 74 538 l0
233 31 26 c37 32 36 67 -4 97 -28 21 -31 21 -945 22 -504 1 -943 -1 -974 -5z
m1862 -70 c0 -5 -19 -12 -42 -15 -91 -15 -880 -25 -1247 -16 -207 5 -391 10
-410 10 -29 0 -32 2 -21 15 11 13 120 15 866 15 479 0 854 -4 854 -9z m-40
-72 c0 -31 -35 -123 -56 -149 -24 -28 -25 -34 -19 -112 8 -97 -8 -227 -36
-303 -23 -61 -101 -175 -154 -225 l-37 -35 41 55 c58 77 108 185 131 282 23
94 39 338 23 338 -6 0 -12 -52 -16 -132 -4 -104 -11 -152 -31 -223 -67 -223
-167 -329 -439 -461 -120 -58 -215 -84 -314 -84 -208 0 -334 51 -479 195 -79
78 -98 103 -137 185 -64 135 -82 222 -81 405 0 97 4 159 12 175 10 21 11 12 7
-55 -7 -100 8 -256 35 -360 32 -128 82 -219 164 -300 195 -193 500 -240 753
-118 40 20 78 42 85 50 8 10 -8 5 -39 -11 -221 -112 -509 -99 -662 30 -46 38
-31 41 31 6 95 -54 195 -82 297 -82 58 0 91 4 91 11 0 6 -9 8 -20 4 -11 -3
-20 -3 -20 2 0 13 -118 56 -156 57 -19 1 -34 5 -34 9 0 5 -4 5 -10 2 -5 -3
-10 -1 -10 5 0 6 -4 9 -10 5 -17 -10 -132 56 -188 108 -66 63 -95 107 -122
186 -23 69 -27 206 -9 291 13 62 6 77 -11 23 -17 -53 -28 -61 -35 -27 -3 16
-10 50 -16 76 -6 25 -10 71 -10 102 0 42 -4 56 -16 58 -9 2 267 4 613 4 346 1
679 6 739 11 61 6 118 11 128 12 9 0 17 -4 17 -10z m-585 -1254 c0 -19 -4 -35
-10 -35 -5 0 -66 -5 -135 -10 -69 -6 -146 -8 -172 -4 -45 5 -48 8 -48 35 0 28
2 29 53 30 45 1 235 12 292 17 17 2 20 -4 20 -33z m15 -80 c0 -40 -30 -86 -67
-102 -21 -8 -49 -20 -63 -26 -40 -16 -68 -18 -105 -8 -54 15 -123 63 -140 98
-8 17 -23 33 -33 35 -9 2 59 5 152 6 94 1 172 5 175 7 2 3 22 5 43 5 27 0 38
-4 38 -15z m-656 -176 c136 -11 267 -10 776 4 63 2 79 -15 23 -25 -177 -30
-629 -35 -848 -8 -122 15 -135 18 -135 36 0 10 6 14 18 10 9 -2 84 -10 166
-17z"/>
<path d="M3159 2266 c3 -70 6 -92 11 -71 13 53 11 162 -2 168 -10 3 -12 -19
-9 -97z"/>
<path d="M1922 2145 c0 -16 2 -22 5 -12 2 9 2 23 0 30 -3 6 -5 -1 -5 -18z"/>
<path d="M1935 2054 c10 -100 99 -233 210 -313 33 -24 45 -28 45 -17 0 9 -4
16 -9 16 -5 0 -11 9 -14 21 -3 11 -14 23 -25 25 -10 3 -26 17 -35 32 -9 15
-29 41 -45 57 -30 32 -43 54 -92 158 -17 37 -33 67 -35 67 -3 0 -3 -20 0 -46z"/>
<path d="M2518 1603 c6 -2 18 -2 25 0 6 3 1 5 -13 5 -14 0 -19 -2 -12 -5z"/>
</g>
</svg>